{
DisplayStrings = (
/.notdef,
A
);
copyright = "Copyright 2019 The Work Sans Project Authors (https://github.com/weiweihuanghuang/Work-Sans)";
customParameters = (
{
name = license;
value = "This Font Software is licensed under the SIL Open Font License, Version 1.1. This license is available with a FAQ at: http://scripts.sil.org/OFL";
},
{
name = licenseURL;
value = "http://scripts.sil.org/OFL";
},
{
name = vendorID;
value = WEI;
},
{
name = glyphOrder;
value = (
    ".notdef",
    A,
    Aacute,
    Abreve,
    uni1EAE,
    uni1EB6,
    uni1EB0,
    uni1EB2,
    uni1EB4,
    Acircumflex,
    uni1EA4,
    uni1EAC,
    uni1EA6,
    uni1EA8,
    uni1EAA,
    uni0200,
    Adieresis,
    uni1EA0,
    Agrave,
    uni1EA2,
    uni0202,
    Amacron,
    Aogonek,
    Aring,
    Aringacute,
    Atilde,
    AE,
    AEacute,
    B,
    C,
    Cacute,
    Ccaron,
    Ccedilla,
    uni1E08,
    Ccircumflex,
    Cdotaccent,
    D,
    uni01F1,
    uni01C4,
    Eth,
    Dcaron,
    Dcroat,
    uni1E0C,
    uni1E0E,
    uni01F2,
    uni01C5,
    E,
    Eacute,
    Ebreve,
    Ecaron,
    uni1E1C,
    Ecircumflex,
    uni1EBE,
    uni1EC6,
    uni1EC0,
    uni1EC2,
    uni1EC4,
    uni0204,
    Edieresis,
    Edotaccent,
    uni1EB8,
    Egrave,
    uni1EBA,
    uni0206,
    Emacron,
    uni1E16,
    uni1E14,
    Eogonek,
    uni1EBC,
    F,
    G,
    Gbreve,
    Gcaron,
    Gcircumflex,
    uni0122,
    Gdotaccent,
    uni1E20,
    H,
    Hbar,
    uni1E2A,
    Hcircumflex,
    uni1E24,
    I,
    IJ,
    Iacute,
    Ibreve,
    Icircumflex,
    uni0208,
    Idieresis,
    uni1E2E,
    Idotaccent,
    uni1ECA,
    Igrave,
    uni1EC8,
    uni020A,
    Imacron,
    Iogonek,
    Itilde,
    J,
    Jcircumflex,
    K,
    uni0136,
    L,
    uni01C7,
    Lacute,
    Lcaron,
    uni013B,
    Ldot,
    uni1E36,
    uni01C8,
    uni1E3A,
    Lslash,
    M,
    uni1E42,
    N,
    uni01CA,
    Nacute,
    Ncaron,
    uni0145,
    uni1E44,
    uni1E46,
    Eng,
    uni01CB,

glyphs = (
{
glyphname = .notdef;
lastChange = "2020-06-06 01:29:16 +0000";
layers = (
{
annotations = (
{
position = "{42.022, 647.686}";
type = Minus;
}
);
layerId = "8B3E5109-5341-41E5-8963-19D9996280B2";
name = Regular;
paths = (
{
closed = 1;
nodes = (
"51 0 LINE",
"51 660 LINE",
"471 660 LINE",
"471 0 LINE"
);
},
{
closed = 1;
nodes = (
"88 36 LINE",
"434 36 LINE",
"434 624 LINE",
"88 624 LINE"
);
},
{
closed = 1;
nodes = (
"102 660 LINE",
"458 22 LINE",
"471 0 LINE",
"425 0 LINE",
"60 649 LINE",
"51 660 LINE SMOOTH"
);
},
{
closed = 1;
nodes = (
"458 649 LINE",
"98 0 LINE",
"50 0 LINE",
"61 22 LINE",
"412 660 LINE",
"470 660 LINE SMOOTH"
);
}
);
width = 521;
}
);
note = .notdef;
},
{
glyphname = A;
lastChange = "2020-06-06 01:28:48 +0000";
layers = (
{
annotations = (
{
position = "{42.022, 647.686}";
type = Minus;
}
);
layerId = "8B3E5109-5341-41E5-8963-19D9996280B2";
name = Regular;
paths = (
{
closed = 1;
nodes = (
"51 0 LINE",
"51 660 LINE",
"471 660 LINE",
"471 0 LINE"
);
},
{
closed = 1;
nodes = (
"88 36 LINE",
"434 36 LINE",
"434 624 LINE",
"88 624 LINE"
);
},
{
closed = 1;
nodes = (
"102 660 LINE",
"458 22 LINE",
"471 0 LINE",
"425 0 LINE",
"60 649 LINE",
"51 660 LINE SMOOTH"
);
},
{
closed = 1;
nodes = (
"458 649 LINE",
"98 0 LINE",
"50 0 LINE",
"61 22 LINE",
"412 660 LINE",
"470 660 LINE SMOOTH"
);
}
);
width = 521;
}
);
note = .notdef;
unicode = 0041;
},
{
glyphname = C;
lastChange = "2020-06-06 01:30:05 +0000";
layers = (
{
annotations = (
{
position = "{42.022, 647.686}";
type = Minus;
}
);
layerId = "8B3E5109-5341-41E5-8963-19D9996280B2";
name = Regular;
paths = (
{
closed = 1;
nodes = (
"51 0 LINE",
"51 660 LINE",
"471 660 LINE",
"471 0 LINE"
);
},
{
closed = 1;
nodes = (
"88 36 LINE",
"434 36 LINE",
"434 624 LINE",
"88 624 LINE"
);
},
{
closed = 1;
nodes = (
"102 660 LINE",
"458 22 LINE",
"471 0 LINE",
"425 0 LINE",
"60 649 LINE",
"51 660 LINE SMOOTH"
);
},
{
closed = 1;
nodes = (
"458 649 LINE",
"98 0 LINE",
"50 0 LINE",
"61 22 LINE",
"412 660 LINE",
"470 660 LINE SMOOTH"
);
}
);
width = 521;
}
);
note = .notdef;
unicode = 0043;
},
{
glyphname = D;
lastChange = "2020-06-06 01:30:07 +0000";
layers = (
{
annotations = (
{
position = "{42.022, 647.686}";
type = Minus;
}
);
layerId = "8B3E5109-5341-41E5-8963-19D9996280B2";
name = Regular;
paths = (
{
closed = 1;
nodes = (
"51 0 LINE",
"51 660 LINE",
"471 660 LINE",
"471 0 LINE"
);
},
{
closed = 1;
nodes = (
"88 36 LINE",
"434 36 LINE",
"434 624 LINE",
"88 624 LINE"
);
},
{
closed = 1;
nodes = (
"102 660 LINE",
"458 22 LINE",
"471 0 LINE",
"425 0 LINE",
"60 649 LINE",
"51 660 LINE SMOOTH"
);
},
{
closed = 1;
nodes = (
"458 649 LINE",
"98 0 LINE",
"50 0 LINE",
"61 22 LINE",
"412 660 LINE",
"470 660 LINE SMOOTH"
);
}
);
width = 521;
}
);
note = .notdef;
unicode = 0044;
},
{
glyphname = E;
lastChange = "2020-06-06 01:30:09 +0000";
layers = (
{
annotations = (
{
position = "{42.022, 647.686}";
type = Minus;
}
);
layerId = "8B3E5109-5341-41E5-8963-19D9996280B2";
name = Regular;
paths = (
{
closed = 1;
nodes = (
"51 0 LINE",
"51 660 LINE",
"471 660 LINE",
"471 0 LINE"
);
},
{
closed = 1;
nodes = (
"88 36 LINE",
"434 36 LINE",
"434 624 LINE",
"88 624 LINE"
);
},
{
closed = 1;
nodes = (
"102 660 LINE",
"458 22 LINE",
"471 0 LINE",
"425 0 LINE",
"60 649 LINE",
"51 660 LINE SMOOTH"
);
},
{
closed = 1;
nodes = (
"458 649 LINE",
"98 0 LINE",
"50 0 LINE",
"61 22 LINE",
"412 660 LINE",
"470 660 LINE SMOOTH"
);
}
);
width = 521;
}
);
note = .notdef;
unicode = 0045;
},
{
glyphname = F;
lastChange = "2020-06-06 01:30:12 +0000";
layers = (
{
annotations = (
{
position = "{42.022, 647.686}";
type = Minus;
}
);
layerId = "8B3E5109-5341-41E5-8963-19D9996280B2";
name = Regular;
paths = (
{
closed = 1;
nodes = (
"51 0 LINE",
"51 660 LINE",
"471 660 LINE",
"471 0 LINE"
);
},
{
closed = 1;
nodes = (
"88 36 LINE",
"434 36 LINE",
"434 624 LINE",
"88 624 LINE"
);
},
{
closed = 1;
nodes = (
"102 660 LINE",
"458 22 LINE",
"471 0 LINE",
"425 0 LINE",
"60 649 LINE",
"51 660 LINE SMOOTH"
);
},
{
closed = 1;
nodes = (
"458 649 LINE",
"98 0 LINE",
"50 0 LINE",
"61 22 LINE",
"412 660 LINE",
"470 660 LINE SMOOTH"
);
}
);
width = 521;
}
);
note = .notdef;
unicode = 0046;
},
{
glyphname = G;
lastChange = "2020-06-06 01:30:18 +0000";
layers = (
{
annotations = (
{
position = "{42.022, 647.686}";
type = Minus;
}
);
layerId = "8B3E5109-5341-41E5-8963-19D9996280B2";
name = Regular;
paths = (
{
closed = 1;
nodes = (
"51 0 LINE",
"51 660 LINE",
"471 660 LINE",
"471 0 LINE"
);
},
{
closed = 1;
nodes = (
"88 36 LINE",
"434 36 LINE",
"434 624 LINE",
"88 624 LINE"
);
},
{
closed = 1;
nodes = (
"102 660 LINE",
"458 22 LINE",
"471 0 LINE",
"425 0 LINE",
"60 649 LINE",
"51 660 LINE SMOOTH"
);
},
{
closed = 1;
nodes = (
"458 649 LINE",
"98 0 LINE",
"50 0 LINE",
"61 22 LINE",
"412 660 LINE",
"470 660 LINE SMOOTH"
);
}
);
width = 521;
}
);
note = .notdef;
unicode = 0047;
},
{
glyphname = H;
lastChange = "2020-06-06 01:30:20 +0000";
layers = (
{
annotations = (
{
position = "{42.022, 647.686}";
type = Minus;
}
);
layerId = "8B3E5109-5341-41E5-8963-19D9996280B2";
name = Regular;
paths = (
{
closed = 1;
nodes = (
"51 0 LINE",
"51 660 LINE",
"471 660 LINE",
"471 0 LINE"
);
},
{
closed = 1;
nodes = (
"88 36 LINE",
"434 36 LINE",
"434 624 LINE",
"88 624 LINE"
);
},
{
closed = 1;
nodes = (
"102 660 LINE",
"458 22 LINE",
"471 0 LINE",
"425 0 LINE",
"60 649 LINE",
"51 660 LINE SMOOTH"
);
},
{
closed = 1;
nodes = (
"458 649 LINE",
"98 0 LINE",
"50 0 LINE",
"61 22 LINE",
"412 660 LINE",
"470 660 LINE SMOOTH"
);
}
);
width = 521;
}
);
note = .notdef;
unicode = 0048;
},
{
glyphname = I;
lastChange = "2020-06-06 01:30:33 +0000";
layers = (
{
annotations = (
{
position = "{42.022, 647.686}";
type = Minus;
}
);
layerId = "8B3E5109-5341-41E5-8963-19D9996280B2";
name = Regular;
paths = (
{
closed = 1;
nodes = (
"51 0 LINE",
"51 660 LINE",
"471 660 LINE",
"471 0 LINE"
);
},
{
closed = 1;
nodes = (
"88 36 LINE",
"434 36 LINE",
"434 624 LINE",
"88 624 LINE"
);
},
{
closed = 1;
nodes = (
"102 660 LINE",
"458 22 LINE",
"471 0 LINE",
"425 0 LINE",
"60 649 LINE",
"51 660 LINE SMOOTH"
);
},
{
closed = 1;
nodes = (
"458 649 LINE",
"98 0 LINE",
"50 0 LINE",
"61 22 LINE",
"412 660 LINE",
"470 660 LINE SMOOTH"
);
}
);
width = 521;
}
);
note = .notdef;
unicode = 0049;
},
{
glyphname = K;
lastChange = "2020-06-06 01:30:50 +0000";
layers = (
{
annotations = (
{
position = "{42.022, 647.686}";
type = Minus;
}
);
layerId = "8B3E5109-5341-41E5-8963-19D9996280B2";
name = Regular;
paths = (
{
closed = 1;
nodes = (
"51 0 LINE",
"51 660 LINE",
"471 660 LINE",
"471 0 LINE"
);
},
{
closed = 1;
nodes = (
"88 36 LINE",
"434 36 LINE",
"434 624 LINE",
"88 624 LINE"
);
},
{
closed = 1;
nodes = (
"102 660 LINE",
"458 22 LINE",
"471 0 LINE",
"425 0 LINE",
"60 649 LINE",
"51 660 LINE SMOOTH"
);
},
{
closed = 1;
nodes = (
"458 649 LINE",
"98 0 LINE",
"50 0 LINE",
"61 22 LINE",
"412 660 LINE",
"470 660 LINE SMOOTH"
);
}
);
width = 521;
}
);
note = .notdef;
unicode = 004B;
},
{
glyphname = L;
lastChange = "2020-06-06 01:30:52 +0000";
layers = (
{
annotations = (
{
position = "{42.022, 647.686}";
type = Minus;
}
);
layerId = "8B3E5109-5341-41E5-8963-19D9996280B2";
name = Regular;
paths = (
{
closed = 1;
nodes = (
"51 0 LINE",
"51 660 LINE",
"471 660 LINE",
"471 0 LINE"
);
},
{
closed = 1;
nodes = (
"88 36 LINE",
"434 36 LINE",
"434 624 LINE",
"88 624 LINE"
);
},
{
closed = 1;
nodes = (
"102 660 LINE",
"458 22 LINE",
"471 0 LINE",
"425 0 LINE",
"60 649 LINE",
"51 660 LINE SMOOTH"
);
},
{
closed = 1;
nodes = (
"458 649 LINE",
"98 0 LINE",
"50 0 LINE",
"61 22 LINE",
"412 660 LINE",
"470 660 LINE SMOOTH"
);
}
);
width = 521;
}
);
note = .notdef;
unicode = 004C;
},
{
glyphname = M;
lastChange = "2020-06-06 01:31:02 +0000";
layers = (
{
annotations = (
{
position = "{42.022, 647.686}";
type = Minus;
}
);
layerId = "8B3E5109-5341-41E5-8963-19D9996280B2";
name = Regular;
paths = (
{
closed = 1;
nodes = (
"51 0 LINE",
"51 660 LINE",
"471 660 LINE",
"471 0 LINE"
);
},
{
closed = 1;
nodes = (
"88 36 LINE",
"434 36 LINE",
"434 624 LINE",
"88 624 LINE"
);
},
{
closed = 1;
nodes = (
"102 660 LINE",
"458 22 LINE",
"471 0 LINE",
"425 0 LINE",
"60 649 LINE",
"51 660 LINE SMOOTH"
);
},
{
closed = 1;
nodes = (
"458 649 LINE",
"98 0 LINE",
"50 0 LINE",
"61 22 LINE",
"412 660 LINE",
"470 660 LINE SMOOTH"
);
}
);
width = 521;
}
);
note = .notdef;
unicode = 004D;
},
{
glyphname = N;
lastChange = "2020-06-06 01:31:04 +0000";
layers = (
{
annotations = (
{
position = "{42.022, 647.686}";
type = Minus;
}
);
layerId = "8B3E5109-5341-41E5-8963-19D9996280B2";
name = Regular;
paths = (
{
closed = 1;
nodes = (
"51 0 LINE",
"51 660 LINE",
"471 660 LINE",
"471 0 LINE"
);
},
{
closed = 1;
nodes = (
"88 36 LINE",
"434 36 LINE",
"434 624 LINE",
"88 624 LINE"
);
},
{
closed = 1;
nodes = (
"102 660 LINE",
"458 22 LINE",
"471 0 LINE",
"425 0 LINE",
"60 649 LINE",
"51 660 LINE SMOOTH"
);
},
{
closed = 1;
nodes = (
"458 649 LINE",
"98 0 LINE",
"50 0 LINE",
"61 22 LINE",
"412 660 LINE",
"470 660 LINE SMOOTH"
);
}
);
width = 521;
}
);
note = .notdef;
unicode = 004E;
},
{
glyphname = O;
lastChange = "2020-06-06 01:31:09 +0000";
layers = (
{
annotations = (
{
position = "{42.022, 647.686}";
type = Minus;
}
);
layerId = "8B3E5109-5341-41E5-8963-19D9996280B2";
name = Regular;
paths = (
{
closed = 1;
nodes = (
"51 0 LINE",
"51 660 LINE",
"471 660 LINE",
"471 0 LINE"
);
},
{
closed = 1;
nodes = (
"88 36 LINE",
"434 36 LINE",
"434 624 LINE",
"88 624 LINE"
);
},
{
closed = 1;
nodes = (
"102 660 LINE",
"458 22 LINE",
"471 0 LINE",
"425 0 LINE",
"60 649 LINE",
"51 660 LINE SMOOTH"
);
},
{
closed = 1;
nodes = (
"458 649 LINE",
"98 0 LINE",
"50 0 LINE",
"61 22 LINE",
"412 660 LINE",
"470 660 LINE SMOOTH"
);
}
);
width = 521;
}
);
note = .notdef;
unicode = 004F;
},
{
glyphname = P;
lastChange = "2020-06-06 01:31:13 +0000";
layers = (
{
annotations = (
{
position = "{42.022, 647.686}";
type = Minus;
}
);
layerId = "8B3E5109-5341-41E5-8963-19D9996280B2";
name = Regular;
paths = (
{
closed = 1;
nodes = (
"51 0 LINE",
"51 660 LINE",
"471 660 LINE",
"471 0 LINE"
);
},
{
closed = 1;
nodes = (
"88 36 LINE",
"434 36 LINE",
"434 624 LINE",
"88 624 LINE"
);
},
{
closed = 1;
nodes = (
"102 660 LINE",
"458 22 LINE",
"471 0 LINE",
"425 0 LINE",
"60 649 LINE",
"51 660 LINE SMOOTH"
);
},
{
closed = 1;
nodes = (
"458 649 LINE",
"98 0 LINE",
"50 0 LINE",
"61 22 LINE",
"412 660 LINE",
"470 660 LINE SMOOTH"
);
}
);
width = 521;
}
);
note = .notdef;
unicode = 0050;
},
{
glyphname = Q;
lastChange = "2020-06-06 01:31:16 +0000";
layers = (
{
annotations = (
{
position = "{42.022, 647.686}";
type = Minus;
}
);
layerId = "8B3E5109-5341-41E5-8963-19D9996280B2";
name = Regular;
paths = (
{
closed = 1;
nodes = (
"51 0 LINE",
"51 660 LINE",
"471 660 LINE",
"471 0 LINE"
);
},
{
closed = 1;
nodes = (
"88 36 LINE",
"434 36 LINE",
"434 624 LINE",
"88 624 LINE"
);
},
{
closed = 1;
nodes = (
"102 660 LINE",
"458 22 LINE",
"471 0 LINE",
"425 0 LINE",
"60 649 LINE",
"51 660 LINE SMOOTH"
);
},
{
closed = 1;
nodes = (
"458 649 LINE",
"98 0 LINE",
"50 0 LINE",
"61 22 LINE",
"412 660 LINE",
"470 660 LINE SMOOTH"
);
}
);
width = 521;
}
);
note = .notdef;
unicode = 0051;
},
{
glyphname = R;
lastChange = "2020-06-06 01:31:18 +0000";
layers = (
{
annotations = (
{
position = "{42.022, 647.686}";
type = Minus;
}
);
layerId = "8B3E5109-5341-41E5-8963-19D9996280B2";
name = Regular;
paths = (
{
closed = 1;
nodes = (
"51 0 LINE",
"51 660 LINE",
"471 660 LINE",
"471 0 LINE"
);
},
{
closed = 1;
nodes = (
"88 36 LINE",
"434 36 LINE",
"434 624 LINE",
"88 624 LINE"
);
},
{
closed = 1;
nodes = (
"102 660 LINE",
"458 22 LINE",
"471 0 LINE",
"425 0 LINE",
"60 649 LINE",
"51 660 LINE SMOOTH"
);
},
{
closed = 1;
nodes = (
"458 649 LINE",
"98 0 LINE",
"50 0 LINE",
"61 22 LINE",
"412 660 LINE",
"470 660 LINE SMOOTH"
);
}
);
width = 521;
}
);
note = .notdef;
unicode = 0052;
},
{
glyphname = S;
lastChange = "2020-06-06 01:31:22 +0000";
layers = (
{
annotations = (
{
position = "{42.022, 647.686}";
type = Minus;
}
);
layerId = "8B3E5109-5341-41E5-8963-19D9996280B2";
name = Regular;
paths = (
{
closed = 1;
nodes = (
"51 0 LINE",
"51 660 LINE",
"471 660 LINE",
"471 0 LINE"
);
},
{
closed = 1;
nodes = (
"88 36 LINE",
"434 36 LINE",
"434 624 LINE",
"88 624 LINE"
);
},
{
closed = 1;
nodes = (
"102 660 LINE",
"458 22 LINE",
"471 0 LINE",
"425 0 LINE",
"60 649 LINE",
"51 660 LINE SMOOTH"
);
},
{
closed = 1;
nodes = (
"458 649 LINE",
"98 0 LINE",
"50 0 LINE",
"61 22 LINE",
"412 660 LINE",
"470 660 LINE SMOOTH"
);
}
);
width = 521;
}
);
note = .notdef;
unicode = 0053;
},
{
glyphname = Scedilla;
lastChange = "2020-06-06 01:08:45 +0000";
layers = (
{
layerId = "8B3E5109-5341-41E5-8963-19D9996280B2";
name = Regular;
paths = (
{
closed = 1;
nodes = (
"41 0 LINE",
"41 660 LINE",
"461 660 LINE",
"461 0 LINE"
);
},
{
closed = 1;
nodes = (
"101 60 LINE",
"401 60 LINE",
"401 600 LINE",
"101 600 LINE"
);
},
{
closed = 1;
nodes = (
"111 660 LINE",
"462 22 LINE",
"461 0 LINE",
"401 0 LINE",
"41 649 LINE",
"41 660 LINE SMOOTH"
);
},
{
closed = 1;
nodes = (
"460 649 LINE",
"100 0 LINE",
"40 0 LINE",
"39 22 LINE",
"390 660 LINE",
"460 660 LINE SMOOTH"
);
}
);
width = 501;
}
);
unicode = 015E;
},
{
glyphname = uni0218;
lastChange = "2020-06-06 01:08:49 +0000";
layers = (
{
layerId = "8B3E5109-5341-41E5-8963-19D9996280B2";
name = Regular;
paths = (
{
closed = 1;
nodes = (
"41 0 LINE",
"41 660 LINE",
"461 660 LINE",
"461 0 LINE"
);
},
{
closed = 1;
nodes = (
"101 60 LINE",
"401 60 LINE",
"401 600 LINE",
"101 600 LINE"
);
},
{
closed = 1;
nodes = (
"111 660 LINE",
"462 22 LINE",
"461 0 LINE",
"401 0 LINE",
"41 649 LINE",
"41 660 LINE SMOOTH"
);
},
{
closed = 1;
nodes = (
"460 649 LINE",
"100 0 LINE",
"40 0 LINE",
"39 22 LINE",
"390 660 LINE",
"460 660 LINE SMOOTH"
);
}
);
width = 501;
}
);
unicode = 0218;
},
{
glyphname = T;
lastChange = "2020-06-06 01:31:45 +0000";
layers = (
{
annotations = (
{
position = "{42.022, 647.686}";
type = Minus;
}
);
layerId = "8B3E5109-5341-41E5-8963-19D9996280B2";
name = Regular;
paths = (
{
closed = 1;
nodes = (
"51 0 LINE",
"51 660 LINE",
"471 660 LINE",
"471 0 LINE"
);
},
{
closed = 1;
nodes = (
"88 36 LINE",
"434 36 LINE",
"434 624 LINE",
"88 624 LINE"
);
},
{
closed = 1;
nodes = (
"102 660 LINE",
"458 22 LINE",
"471 0 LINE",
"425 0 LINE",
"60 649 LINE",
"51 660 LINE SMOOTH"
);
},
{
closed = 1;
nodes = (
"458 649 LINE",
"98 0 LINE",
"50 0 LINE",
"61 22 LINE",
"412 660 LINE",
"470 660 LINE SMOOTH"
);
}
);
width = 521;
}
);
note = .notdef;
unicode = 0054;
},
{
glyphname = uni0162;
lastChange = "2020-06-06 01:08:54 +0000";
layers = (
{
layerId = "8B3E5109-5341-41E5-8963-19D9996280B2";
name = Regular;
paths = (
{
closed = 1;
nodes = (
"41 0 LINE",
"41 660 LINE",
"461 660 LINE",
"461 0 LINE"
);
},
{
closed = 1;
nodes = (
"101 60 LINE",
"401 60 LINE",
"401 600 LINE",
"101 600 LINE"
);
},
{
closed = 1;
nodes = (
"111 660 LINE",
"462 22 LINE",
"461 0 LINE",
"401 0 LINE",
"41 649 LINE",
"41 660 LINE SMOOTH"
);
},
{
closed = 1;
nodes = (
"460 649 LINE",
"100 0 LINE",
"40 0 LINE",
"39 22 LINE",
"390 660 LINE",
"460 660 LINE SMOOTH"
);
}
);
width = 501;
}
);
unicode = 0162;
},
{
glyphname = uni021A;
lastChange = "2020-06-06 01:08:58 +0000";
layers = (
{
layerId = "8B3E5109-5341-41E5-8963-19D9996280B2";
name = Regular;
paths = (
{
closed = 1;
nodes = (
"41 0 LINE",
"41 660 LINE",
"461 660 LINE",
"461 0 LINE"
);
},
{
closed = 1;
nodes = (
"101 60 LINE",
"401 60 LINE",
"401 600 LINE",
"101 600 LINE"
);
},
{
closed = 1;
nodes = (
"111 660 LINE",
"462 22 LINE",
"461 0 LINE",
"401 0 LINE",
"41 649 LINE",
"41 660 LINE SMOOTH"
);
},
{
closed = 1;
nodes = (
"460 649 LINE",
"100 0 LINE",
"40 0 LINE",
"39 22 LINE",
"390 660 LINE",
"460 660 LINE SMOOTH"
);
}
);
width = 501;
}
);
unicode = 021A;
},
{
glyphname = U;
lastChange = "2020-06-06 01:31:47 +0000";
layers = (
{
annotations = (
{
position = "{42.022, 647.686}";
type = Minus;
}
);
layerId = "8B3E5109-5341-41E5-8963-19D9996280B2";
name = Regular;
paths = (
{
closed = 1;
nodes = (
"51 0 LINE",
"51 660 LINE",
"471 660 LINE",
"471 0 LINE"
);
},
{
closed = 1;
nodes = (
"88 36 LINE",
"434 36 LINE",
"434 624 LINE",
"88 624 LINE"
);
},
{
closed = 1;
nodes = (
"102 660 LINE",
"458 22 LINE",
"471 0 LINE",
"425 0 LINE",
"60 649 LINE",
"51 660 LINE SMOOTH"
);
},
{
closed = 1;
nodes = (
"458 649 LINE",
"98 0 LINE",
"50 0 LINE",
"61 22 LINE",
"412 660 LINE",
"470 660 LINE SMOOTH"
);
}
);
width = 521;
}
);
note = .notdef;
unicode = 0055;
},
{
glyphname = V;
lastChange = "2020-06-06 01:31:49 +0000";
layers = (
{
annotations = (
{
position = "{42.022, 647.686}";
type = Minus;
}
);
layerId = "8B3E5109-5341-41E5-8963-19D9996280B2";
name = Regular;
paths = (
{
closed = 1;
nodes = (
"51 0 LINE",
"51 660 LINE",
"471 660 LINE",
"471 0 LINE"
);
},
{
closed = 1;
nodes = (
"88 36 LINE",
"434 36 LINE",
"434 624 LINE",
"88 624 LINE"
);
},
{
closed = 1;
nodes = (
"102 660 LINE",
"458 22 LINE",
"471 0 LINE",
"425 0 LINE",
"60 649 LINE",
"51 660 LINE SMOOTH"
);
},
{
closed = 1;
nodes = (
"458 649 LINE",
"98 0 LINE",
"50 0 LINE",
"61 22 LINE",
"412 660 LINE",
"470 660 LINE SMOOTH"
);
}
);
width = 521;
}
);
note = .notdef;
unicode = 0056;
},
{
glyphname = W;
lastChange = "2020-06-06 01:31:50 +0000";
layers = (
{
annotations = (
{
position = "{42.022, 647.686}";
type = Minus;
}
);
layerId = "8B3E5109-5341-41E5-8963-19D9996280B2";
name = Regular;
paths = (
{
closed = 1;
nodes = (
"51 0 LINE",
"51 660 LINE",
"471 660 LINE",
"471 0 LINE"
);
},
{
closed = 1;
nodes = (
"88 36 LINE",
"434 36 LINE",
"434 624 LINE",
"88 624 LINE"
);
},
{
closed = 1;
nodes = (
"102 660 LINE",
"458 22 LINE",
"471 0 LINE",
"425 0 LINE",
"60 649 LINE",
"51 660 LINE SMOOTH"
);
},
{
closed = 1;
nodes = (
"458 649 LINE",
"98 0 LINE",
"50 0 LINE",
"61 22 LINE",
"412 660 LINE",
"470 660 LINE SMOOTH"
);
}
);
width = 521;
}
);
note = .notdef;
unicode = 0057;
},
{
glyphname = X;
lastChange = "2020-06-06 01:31:53 +0000";
layers = (
{
annotations = (
{
position = "{42.022, 647.686}";
type = Minus;
}
);
layerId = "8B3E5109-5341-41E5-8963-19D9996280B2";
name = Regular;
paths = (
{
closed = 1;
nodes = (
"51 0 LINE",
"51 660 LINE",
"471 660 LINE",
"471 0 LINE"
);
},
{
closed = 1;
nodes = (
"88 36 LINE",
"434 36 LINE",
"434 624 LINE",
"88 624 LINE"
);
},
{
closed = 1;
nodes = (
"102 660 LINE",
"458 22 LINE",
"471 0 LINE",
"425 0 LINE",
"60 649 LINE",
"51 660 LINE SMOOTH"
);
},
{
closed = 1;
nodes = (
"458 649 LINE",
"98 0 LINE",
"50 0 LINE",
"61 22 LINE",
"412 660 LINE",
"470 660 LINE SMOOTH"
);
}
);
width = 521;
}
);
note = .notdef;
unicode = 0058;
},
{
glyphname = Y;
lastChange = "2020-06-06 01:31:55 +0000";
layers = (
{
annotations = (
{
position = "{42.022, 647.686}";
type = Minus;
}
);
layerId = "8B3E5109-5341-41E5-8963-19D9996280B2";
name = Regular;
paths = (
{
closed = 1;
nodes = (
"51 0 LINE",
"51 660 LINE",
"471 660 LINE",
"471 0 LINE"
);
},
{
closed = 1;
nodes = (
"88 36 LINE",
"434 36 LINE",
"434 624 LINE",
"88 624 LINE"
);
},
{
closed = 1;
nodes = (
"102 660 LINE",
"458 22 LINE",
"471 0 LINE",
"425 0 LINE",
"60 649 LINE",
"51 660 LINE SMOOTH"
);
},
{
closed = 1;
nodes = (
"458 649 LINE",
"98 0 LINE",
"50 0 LINE",
"61 22 LINE",
"412 660 LINE",
"470 660 LINE SMOOTH"
);
}
);
width = 521;
}
);
note = .notdef;
unicode = 0059;
},
{
glyphname = Z;
lastChange = "2020-06-06 01:31:57 +0000";
layers = (
{
annotations = (
{
position = "{42.022, 647.686}";
type = Minus;
}
);
layerId = "8B3E5109-5341-41E5-8963-19D9996280B2";
name = Regular;
paths = (
{
closed = 1;
nodes = (
"51 0 LINE",
"51 660 LINE",
"471 660 LINE",
"471 0 LINE"
);
},
{
closed = 1;
nodes = (
"88 36 LINE",
"434 36 LINE",
"434 624 LINE",
"88 624 LINE"
);
},
{
closed = 1;
nodes = (
"102 660 LINE",
"458 22 LINE",
"471 0 LINE",
"425 0 LINE",
"60 649 LINE",
"51 660 LINE SMOOTH"
);
},
{
closed = 1;
nodes = (
"458 649 LINE",
"98 0 LINE",
"50 0 LINE",
"61 22 LINE",
"412 660 LINE",
"470 660 LINE SMOOTH"
);
}
);
width = 521;
}
);
note = .notdef;
unicode = 005A;
},
{
glyphname = Iacute_J.loclNLD;
lastChange = "2020-06-06 01:10:58 +0000";
layers = (
{
layerId = "8B3E5109-5341-41E5-8963-19D9996280B2";
name = Regular;
paths = (
{
closed = 1;
nodes = (
"41 0 LINE",
"41 660 LINE",
"461 660 LINE",
"461 0 LINE"
);
},
{
closed = 1;
nodes = (
"101 60 LINE",
"401 60 LINE",
"401 600 LINE",
"101 600 LINE"
);
},
{
closed = 1;
nodes = (
"111 660 LINE",
"462 22 LINE",
"461 0 LINE",
"401 0 LINE",
"41 649 LINE",
"41 660 LINE SMOOTH"
);
},
{
closed = 1;
nodes = (
"460 649 LINE",
"100 0 LINE",
"40 0 LINE",
"39 22 LINE",
"390 660 LINE",
"460 660 LINE SMOOTH"
);
}
);
width = 501;
}
);
},
{
glyphname = a;
lastChange = "2020-06-06 00:55:49 +0000";
layers = (
{
layerId = "8B3E5109-5341-41E5-8963-19D9996280B2";
name = Regular;
paths = (
{
closed = 1;
nodes = (
"41 0 LINE",
"41 660 LINE",
"461 660 LINE",
"461 0 LINE"
);
},
{
closed = 1;
nodes = (
"101 60 LINE",
"401 60 LINE",
"401 600 LINE",
"101 600 LINE"
);
},
{
closed = 1;
nodes = (
"111 660 LINE",
"462 22 LINE",
"461 0 LINE",
"401 0 LINE",
"41 649 LINE",
"41 660 LINE SMOOTH"
);
},
{
closed = 1;
nodes = (
"460 649 LINE",
"100 0 LINE",
"40 0 LINE",
"39 22 LINE",
"390 660 LINE",
"460 660 LINE SMOOTH"
);
}
);
width = 501;
}
);
unicode = 0061;
},
{
glyphname = b;
lastChange = "2020-06-06 00:58:19 +0000";
layers = (
{
layerId = "8B3E5109-5341-41E5-8963-19D9996280B2";
name = Regular;
paths = (
{
closed = 1;
nodes = (
"41 0 LINE",
"41 660 LINE",
"461 660 LINE",
"461 0 LINE"
);
},
{
closed = 1;
nodes = (
"101 60 LINE",
"401 60 LINE",
"401 600 LINE",
"101 600 LINE"
);
},
{
closed = 1;
nodes = (
"111 660 LINE",
"462 22 LINE",
"461 0 LINE",
"401 0 LINE",
"41 649 LINE",
"41 660 LINE SMOOTH"
);
},
{
closed = 1;
nodes = (
"460 649 LINE",
"100 0 LINE",
"40 0 LINE",
"39 22 LINE",
"390 660 LINE",
"460 660 LINE SMOOTH"
);
}
);
width = 501;
}
);
unicode = 0062;
},
{
glyphname = c;
lastChange = "2020-06-06 00:58:25 +0000";
layers = (
{
layerId = "8B3E5109-5341-41E5-8963-19D9996280B2";
name = Regular;
paths = (
{
closed = 1;
nodes = (
"41 0 LINE",
"41 660 LINE",
"461 660 LINE",
"461 0 LINE"
);
},
{
closed = 1;
nodes = (
"101 60 LINE",
"401 60 LINE",
"401 600 LINE",
"101 600 LINE"
);
},
{
closed = 1;
nodes = (
"111 660 LINE",
"462 22 LINE",
"461 0 LINE",
"401 0 LINE",
"41 649 LINE",
"41 660 LINE SMOOTH"
);
},
{
closed = 1;
nodes = (
"460 649 LINE",
"100 0 LINE",
"40 0 LINE",
"39 22 LINE",
"390 660 LINE",
"460 660 LINE SMOOTH"
);
}
);
width = 501;
}
);
unicode = 0063;
},
{
glyphname = d;
lastChange = "2020-06-06 00:58:35 +0000";
layers = (
{
layerId = "8B3E5109-5341-41E5-8963-19D9996280B2";
name = Regular;
paths = (
{
closed = 1;
nodes = (
"41 0 LINE",
"41 660 LINE",
"461 660 LINE",
"461 0 LINE"
);
},
{
closed = 1;
nodes = (
"101 60 LINE",
"401 60 LINE",
"401 600 LINE",
"101 600 LINE"
);
},
{
closed = 1;
nodes = (
"111 660 LINE",
"462 22 LINE",
"461 0 LINE",
"401 0 LINE",
"41 649 LINE",
"41 660 LINE SMOOTH"
);
},
{
closed = 1;
nodes = (
"460 649 LINE",
"100 0 LINE",
"40 0 LINE",
"39 22 LINE",
"390 660 LINE",
"460 660 LINE SMOOTH"
);
}
);
width = 501;
}
);
unicode = 0064;
},
{
glyphname = e;
lastChange = "2020-06-06 00:58:40 +0000";
layers = (
{
layerId = "8B3E5109-5341-41E5-8963-19D9996280B2";
name = Regular;
paths = (
{
closed = 1;
nodes = (
"41 0 LINE",
"41 660 LINE",
"461 660 LINE",
"461 0 LINE"
);
},
{
closed = 1;
nodes = (
"101 60 LINE",
"401 60 LINE",
"401 600 LINE",
"101 600 LINE"
);
},
{
closed = 1;
nodes = (
"111 660 LINE",
"462 22 LINE",
"461 0 LINE",
"401 0 LINE",
"41 649 LINE",
"41 660 LINE SMOOTH"
);
},
{
closed = 1;
nodes = (
"460 649 LINE",
"100 0 LINE",
"40 0 LINE",
"39 22 LINE",
"390 660 LINE",
"460 660 LINE SMOOTH"
);
}
);
width = 501;
}
);
unicode = 0065;
},
{
glyphname = f;
lastChange = "2020-06-06 00:59:05 +0000";
layers = (
{
layerId = "8B3E5109-5341-41E5-8963-19D9996280B2";
name = Regular;
paths = (
{
closed = 1;
nodes = (
"41 0 LINE",
"41 660 LINE",
"461 660 LINE",
"461 0 LINE"
);
},
{
closed = 1;
nodes = (
"101 60 LINE",
"401 60 LINE",
"401 600 LINE",
"101 600 LINE"
);
},
{
closed = 1;
nodes = (
"111 660 LINE",
"462 22 LINE",
"461 0 LINE",
"401 0 LINE",
"41 649 LINE",
"41 660 LINE SMOOTH"
);
},
{
closed = 1;
nodes = (
"460 649 LINE",
"100 0 LINE",
"40 0 LINE",
"39 22 LINE",
"390 660 LINE",
"460 660 LINE SMOOTH"
);
}
);
width = 501;
}
);
unicode = 0066;
},
{
glyphname = g;
lastChange = "2020-06-06 00:59:10 +0000";
layers = (
{
layerId = "8B3E5109-5341-41E5-8963-19D9996280B2";
name = Regular;
paths = (
{
closed = 1;
nodes = (
"41 0 LINE",
"41 660 LINE",
"461 660 LINE",
"461 0 LINE"
);
},
{
closed = 1;
nodes = (
"101 60 LINE",
"401 60 LINE",
"401 600 LINE",
"101 600 LINE"
);
},
{
closed = 1;
nodes = (
"111 660 LINE",
"462 22 LINE",
"461 0 LINE",
"401 0 LINE",
"41 649 LINE",
"41 660 LINE SMOOTH"
);
},
{
closed = 1;
nodes = (
"460 649 LINE",
"100 0 LINE",
"40 0 LINE",
"39 22 LINE",
"390 660 LINE",
"460 660 LINE SMOOTH"
);
}
);
width = 501;
}
);
unicode = 0067;
},
{
glyphname = h;
lastChange = "2020-06-06 00:59:13 +0000";
layers = (
{
layerId = "8B3E5109-5341-41E5-8963-19D9996280B2";
name = Regular;
paths = (
{
closed = 1;
nodes = (
"41 0 LINE",
"41 660 LINE",
"461 660 LINE",
"461 0 LINE"
);
},
{
closed = 1;
nodes = (
"101 60 LINE",
"401 60 LINE",
"401 600 LINE",
"101 600 LINE"
);
},
{
closed = 1;
nodes = (
"111 660 LINE",
"462 22 LINE",
"461 0 LINE",
"401 0 LINE",
"41 649 LINE",
"41 660 LINE SMOOTH"
);
},
{
closed = 1;
nodes = (
"460 649 LINE",
"100 0 LINE",
"40 0 LINE",
"39 22 LINE",
"390 660 LINE",
"460 660 LINE SMOOTH"
);
}
);
width = 501;
}
);
unicode = 0068;
},
{
glyphname = i;
lastChange = "2020-06-06 00:59:16 +0000";
layers = (
{
layerId = "8B3E5109-5341-41E5-8963-19D9996280B2";
name = Regular;
paths = (
{
closed = 1;
nodes = (
"41 0 LINE",
"41 660 LINE",
"461 660 LINE",
"461 0 LINE"
);
},
{
closed = 1;
nodes = (
"101 60 LINE",
"401 60 LINE",
"401 600 LINE",
"101 600 LINE"
);
},
{
closed = 1;
nodes = (
"111 660 LINE",
"462 22 LINE",
"461 0 LINE",
"401 0 LINE",
"41 649 LINE",
"41 660 LINE SMOOTH"
);
},
{
closed = 1;
nodes = (
"460 649 LINE",
"100 0 LINE",
"40 0 LINE",
"39 22 LINE",
"390 660 LINE",
"460 660 LINE SMOOTH"
);
}
);
width = 501;
}
);
unicode = 0069;
},
{
glyphname = iacute;
lastChange = "2020-06-06 01:11:05 +0000";
layers = (
{
layerId = "8B3E5109-5341-41E5-8963-19D9996280B2";
name = Regular;
paths = (
{
closed = 1;
nodes = (
"41 0 LINE",
"41 660 LINE",
"461 660 LINE",
"461 0 LINE"
);
},
{
closed = 1;
nodes = (
"101 60 LINE",
"401 60 LINE",
"401 600 LINE",
"101 600 LINE"
);
},
{
closed = 1;
nodes = (
"111 660 LINE",
"462 22 LINE",
"461 0 LINE",
"401 0 LINE",
"41 649 LINE",
"41 660 LINE SMOOTH"
);
},
{
closed = 1;
nodes = (
"460 649 LINE",
"100 0 LINE",
"40 0 LINE",
"39 22 LINE",
"390 660 LINE",
"460 660 LINE SMOOTH"
);
}
);
width = 501;
}
);
unicode = 00ED;
},
{
glyphname = i.loclTRK;
lastChange = "2020-06-06 01:05:14 +0000";
layers = (
{
layerId = "8B3E5109-5341-41E5-8963-19D9996280B2";
name = Regular;
paths = (
{
closed = 1;
nodes = (
"41 0 LINE",
"41 660 LINE",
"461 660 LINE",
"461 0 LINE"
);
},
{
closed = 1;
nodes = (
"101 60 LINE",
"401 60 LINE",
"401 600 LINE",
"101 600 LINE"
);
},
{
closed = 1;
nodes = (
"111 660 LINE",
"462 22 LINE",
"461 0 LINE",
"401 0 LINE",
"41 649 LINE",
"41 660 LINE SMOOTH"
);
},
{
closed = 1;
nodes = (
"460 649 LINE",
"100 0 LINE",
"40 0 LINE",
"39 22 LINE",
"390 660 LINE",
"460 660 LINE SMOOTH"
);
}
);
width = 501;
}
);
},
{
glyphname = j;
lastChange = "2020-06-06 00:59:39 +0000";
layers = (
{
layerId = "8B3E5109-5341-41E5-8963-19D9996280B2";
name = Regular;
paths = (
{
closed = 1;
nodes = (
"41 0 LINE",
"41 660 LINE",
"461 660 LINE",
"461 0 LINE"
);
},
{
closed = 1;
nodes = (
"101 60 LINE",
"401 60 LINE",
"401 600 LINE",
"101 600 LINE"
);
},
{
closed = 1;
nodes = (
"111 660 LINE",
"462 22 LINE",
"461 0 LINE",
"401 0 LINE",
"41 649 LINE",
"41 660 LINE SMOOTH"
);
},
{
closed = 1;
nodes = (
"460 649 LINE",
"100 0 LINE",
"40 0 LINE",
"39 22 LINE",
"390 660 LINE",
"460 660 LINE SMOOTH"
);
}
);
width = 501;
}
);
unicode = 006A;
},
{
glyphname = k;
lastChange = "2020-06-06 00:59:49 +0000";
layers = (
{
layerId = "8B3E5109-5341-41E5-8963-19D9996280B2";
name = Regular;
paths = (
{
closed = 1;
nodes = (
"41 0 LINE",
"41 660 LINE",
"461 660 LINE",
"461 0 LINE"
);
},
{
closed = 1;
nodes = (
"101 60 LINE",
"401 60 LINE",
"401 600 LINE",
"101 600 LINE"
);
},
{
closed = 1;
nodes = (
"111 660 LINE",
"462 22 LINE",
"461 0 LINE",
"401 0 LINE",
"41 649 LINE",
"41 660 LINE SMOOTH"
);
},
{
closed = 1;
nodes = (
"460 649 LINE",
"100 0 LINE",
"40 0 LINE",
"39 22 LINE",
"390 660 LINE",
"460 660 LINE SMOOTH"
);
}
);
width = 501;
}
);
unicode = 006B;
},
{
glyphname = l;
lastChange = "2020-06-06 00:59:54 +0000";
layers = (
{
layerId = "8B3E5109-5341-41E5-8963-19D9996280B2";
name = Regular;
paths = (
{
closed = 1;
nodes = (
"41 0 LINE",
"41 660 LINE",
"461 660 LINE",
"461 0 LINE"
);
},
{
closed = 1;
nodes = (
"101 60 LINE",
"401 60 LINE",
"401 600 LINE",
"101 600 LINE"
);
},
{
closed = 1;
nodes = (
"111 660 LINE",
"462 22 LINE",
"461 0 LINE",
"401 0 LINE",
"41 649 LINE",
"41 660 LINE SMOOTH"
);
},
{
closed = 1;
nodes = (
"460 649 LINE",
"100 0 LINE",
"40 0 LINE",
"39 22 LINE",
"390 660 LINE",
"460 660 LINE SMOOTH"
);
}
);
width = 501;
}
);
unicode = 006C;
},
{
glyphname = m;
lastChange = "2020-06-06 00:59:56 +0000";
layers = (
{
layerId = "8B3E5109-5341-41E5-8963-19D9996280B2";
name = Regular;
paths = (
{
closed = 1;
nodes = (
"41 0 LINE",
"41 660 LINE",
"461 660 LINE",
"461 0 LINE"
);
},
{
closed = 1;
nodes = (
"101 60 LINE",
"401 60 LINE",
"401 600 LINE",
"101 600 LINE"
);
},
{
closed = 1;
nodes = (
"111 660 LINE",
"462 22 LINE",
"461 0 LINE",
"401 0 LINE",
"41 649 LINE",
"41 660 LINE SMOOTH"
);
},
{
closed = 1;
nodes = (
"460 649 LINE",
"100 0 LINE",
"40 0 LINE",
"39 22 LINE",
"390 660 LINE",
"460 660 LINE SMOOTH"
);
}
);
width = 501;
}
);
unicode = 006D;
},
{
glyphname = n;
lastChange = "2020-06-06 00:59:58 +0000";
layers = (
{
layerId = "8B3E5109-5341-41E5-8963-19D9996280B2";
name = Regular;
paths = (
{
closed = 1;
nodes = (
"41 0 LINE",
"41 660 LINE",
"461 660 LINE",
"461 0 LINE"
);
},
{
closed = 1;
nodes = (
"101 60 LINE",
"401 60 LINE",
"401 600 LINE",
"101 600 LINE"
);
},
{
closed = 1;
nodes = (
"111 660 LINE",
"462 22 LINE",
"461 0 LINE",
"401 0 LINE",
"41 649 LINE",
"41 660 LINE SMOOTH"
);
},
{
closed = 1;
nodes = (
"460 649 LINE",
"100 0 LINE",
"40 0 LINE",
"39 22 LINE",
"390 660 LINE",
"460 660 LINE SMOOTH"
);
}
);
width = 501;
}
);
unicode = 006E;
},
{
glyphname = o;
lastChange = "2020-06-06 01:00:03 +0000";
layers = (
{
layerId = "8B3E5109-5341-41E5-8963-19D9996280B2";
name = Regular;
paths = (
{
closed = 1;
nodes = (
"41 0 LINE",
"41 660 LINE",
"461 660 LINE",
"461 0 LINE"
);
},
{
closed = 1;
nodes = (
"101 60 LINE",
"401 60 LINE",
"401 600 LINE",
"101 600 LINE"
);
},
{
closed = 1;
nodes = (
"111 660 LINE",
"462 22 LINE",
"461 0 LINE",
"401 0 LINE",
"41 649 LINE",
"41 660 LINE SMOOTH"
);
},
{
closed = 1;
nodes = (
"460 649 LINE",
"100 0 LINE",
"40 0 LINE",
"39 22 LINE",
"390 660 LINE",
"460 660 LINE SMOOTH"
);
}
);
width = 501;
}
);
unicode = 006F;
},
{
glyphname = p;
lastChange = "2020-06-06 01:00:05 +0000";
layers = (
{
layerId = "8B3E5109-5341-41E5-8963-19D9996280B2";
name = Regular;
paths = (
{
closed = 1;
nodes = (
"41 0 LINE",
"41 660 LINE",
"461 660 LINE",
"461 0 LINE"
);
},
{
closed = 1;
nodes = (
"101 60 LINE",
"401 60 LINE",
"401 600 LINE",
"101 600 LINE"
);
},
{
closed = 1;
nodes = (
"111 660 LINE",
"462 22 LINE",
"461 0 LINE",
"401 0 LINE",
"41 649 LINE",
"41 660 LINE SMOOTH"
);
},
{
closed = 1;
nodes = (
"460 649 LINE",
"100 0 LINE",
"40 0 LINE",
"39 22 LINE",
"390 660 LINE",
"460 660 LINE SMOOTH"
);
}
);
width = 501;
}
);
unicode = 0070;
},
{
glyphname = q;
lastChange = "2020-06-06 01:00:07 +0000";
layers = (
{
layerId = "8B3E5109-5341-41E5-8963-19D9996280B2";
name = Regular;
paths = (
{
closed = 1;
nodes = (
"41 0 LINE",
"41 660 LINE",
"461 660 LINE",
"461 0 LINE"
);
},
{
closed = 1;
nodes = (
"101 60 LINE",
"401 60 LINE",
"401 600 LINE",
"101 600 LINE"
);
},
{
closed = 1;
nodes = (
"111 660 LINE",
"462 22 LINE",
"461 0 LINE",
"401 0 LINE",
"41 649 LINE",
"41 660 LINE SMOOTH"
);
},
{
closed = 1;
nodes = (
"460 649 LINE",
"100 0 LINE",
"40 0 LINE",
"39 22 LINE",
"390 660 LINE",
"460 660 LINE SMOOTH"
);
}
);
width = 501;
}
);
unicode = 0071;
},
{
glyphname = r;
lastChange = "2020-06-06 01:00:10 +0000";
layers = (
{
layerId = "8B3E5109-5341-41E5-8963-19D9996280B2";
name = Regular;
paths = (
{
closed = 1;
nodes = (
"41 0 LINE",
"41 660 LINE",
"461 660 LINE",
"461 0 LINE"
);
},
{
closed = 1;
nodes = (
"101 60 LINE",
"401 60 LINE",
"401 600 LINE",
"101 600 LINE"
);
},
{
closed = 1;
nodes = (
"111 660 LINE",
"462 22 LINE",
"461 0 LINE",
"401 0 LINE",
"41 649 LINE",
"41 660 LINE SMOOTH"
);
},
{
closed = 1;
nodes = (
"460 649 LINE",
"100 0 LINE",
"40 0 LINE",
"39 22 LINE",
"390 660 LINE",
"460 660 LINE SMOOTH"
);
}
);
width = 501;
}
);
unicode = 0072;
},
{
glyphname = s;
lastChange = "2020-06-06 01:00:14 +0000";
layers = (
{
layerId = "8B3E5109-5341-41E5-8963-19D9996280B2";
name = Regular;
paths = (
{
closed = 1;
nodes = (
"41 0 LINE",
"41 660 LINE",
"461 660 LINE",
"461 0 LINE"
);
},
{
closed = 1;
nodes = (
"101 60 LINE",
"401 60 LINE",
"401 600 LINE",
"101 600 LINE"
);
},
{
closed = 1;
nodes = (
"111 660 LINE",
"462 22 LINE",
"461 0 LINE",
"401 0 LINE",
"41 649 LINE",
"41 660 LINE SMOOTH"
);
},
{
closed = 1;
nodes = (
"460 649 LINE",
"100 0 LINE",
"40 0 LINE",
"39 22 LINE",
"390 660 LINE",
"460 660 LINE SMOOTH"
);
}
);
width = 501;
}
);
unicode = 0073;
},
{
glyphname = scedilla;
lastChange = "2020-06-06 01:08:59 +0000";
layers = (
{
layerId = "8B3E5109-5341-41E5-8963-19D9996280B2";
name = Regular;
paths = (
{
closed = 1;
nodes = (
"41 0 LINE",
"41 660 LINE",
"461 660 LINE",
"461 0 LINE"
);
},
{
closed = 1;
nodes = (
"101 60 LINE",
"401 60 LINE",
"401 600 LINE",
"101 600 LINE"
);
},
{
closed = 1;
nodes = (
"111 660 LINE",
"462 22 LINE",
"461 0 LINE",
"401 0 LINE",
"41 649 LINE",
"41 660 LINE SMOOTH"
);
},
{
closed = 1;
nodes = (
"460 649 LINE",
"100 0 LINE",
"40 0 LINE",
"39 22 LINE",
"390 660 LINE",
"460 660 LINE SMOOTH"
);
}
);
width = 501;
}
);
unicode = 015F;
},
{
glyphname = uni0219;
lastChange = "2020-06-06 01:09:09 +0000";
layers = (
{
layerId = "8B3E5109-5341-41E5-8963-19D9996280B2";
name = Regular;
paths = (
{
closed = 1;
nodes = (
"41 0 LINE",
"41 660 LINE",
"461 660 LINE",
"461 0 LINE"
);
},
{
closed = 1;
nodes = (
"101 60 LINE",
"401 60 LINE",
"401 600 LINE",
"101 600 LINE"
);
},
{
closed = 1;
nodes = (
"111 660 LINE",
"462 22 LINE",
"461 0 LINE",
"401 0 LINE",
"41 649 LINE",
"41 660 LINE SMOOTH"
);
},
{
closed = 1;
nodes = (
"460 649 LINE",
"100 0 LINE",
"40 0 LINE",
"39 22 LINE",
"390 660 LINE",
"460 660 LINE SMOOTH"
);
}
);
width = 501;
}
);
unicode = 0219;
},
{
glyphname = t;
lastChange = "2020-06-06 01:00:16 +0000";
layers = (
{
layerId = "8B3E5109-5341-41E5-8963-19D9996280B2";
name = Regular;
paths = (
{
closed = 1;
nodes = (
"41 0 LINE",
"41 660 LINE",
"461 660 LINE",
"461 0 LINE"
);
},
{
closed = 1;
nodes = (
"101 60 LINE",
"401 60 LINE",
"401 600 LINE",
"101 600 LINE"
);
},
{
closed = 1;
nodes = (
"111 660 LINE",
"462 22 LINE",
"461 0 LINE",
"401 0 LINE",
"41 649 LINE",
"41 660 LINE SMOOTH"
);
},
{
closed = 1;
nodes = (
"460 649 LINE",
"100 0 LINE",
"40 0 LINE",
"39 22 LINE",
"390 660 LINE",
"460 660 LINE SMOOTH"
);
}
);
width = 501;
}
);
unicode = 0074;
},
{
glyphname = uni0163;
lastChange = "2020-06-06 01:09:14 +0000";
layers = (
{
layerId = "8B3E5109-5341-41E5-8963-19D9996280B2";
name = Regular;
paths = (
{
closed = 1;
nodes = (
"41 0 LINE",
"41 660 LINE",
"461 660 LINE",
"461 0 LINE"
);
},
{
closed = 1;
nodes = (
"101 60 LINE",
"401 60 LINE",
"401 600 LINE",
"101 600 LINE"
);
},
{
closed = 1;
nodes = (
"111 660 LINE",
"462 22 LINE",
"461 0 LINE",
"401 0 LINE",
"41 649 LINE",
"41 660 LINE SMOOTH"
);
},
{
closed = 1;
nodes = (
"460 649 LINE",
"100 0 LINE",
"40 0 LINE",
"39 22 LINE",
"390 660 LINE",
"460 660 LINE SMOOTH"
);
}
);
width = 501;
}
);
unicode = 0163;
},
{
glyphname = uni021B;
lastChange = "2020-06-06 01:09:39 +0000";
layers = (
{
layerId = "8B3E5109-5341-41E5-8963-19D9996280B2";
name = Regular;
paths = (
{
closed = 1;
nodes = (
"41 0 LINE",
"41 660 LINE",
"461 660 LINE",
"461 0 LINE"
);
},
{
closed = 1;
nodes = (
"101 60 LINE",
"401 60 LINE",
"401 600 LINE",
"101 600 LINE"
);
},
{
closed = 1;
nodes = (
"111 660 LINE",
"462 22 LINE",
"461 0 LINE",
"401 0 LINE",
"41 649 LINE",
"41 660 LINE SMOOTH"
);
},
{
closed = 1;
nodes = (
"460 649 LINE",
"100 0 LINE",
"40 0 LINE",
"39 22 LINE",
"390 660 LINE",
"460 660 LINE SMOOTH"
);
}
);
width = 501;
}
);
unicode = 021B;
},
{
glyphname = u;
lastChange = "2020-06-06 01:00:18 +0000";
layers = (
{
layerId = "8B3E5109-5341-41E5-8963-19D9996280B2";
name = Regular;
paths = (
{
closed = 1;
nodes = (
"41 0 LINE",
"41 660 LINE",
"461 660 LINE",
"461 0 LINE"
);
},
{
closed = 1;
nodes = (
"101 60 LINE",
"401 60 LINE",
"401 600 LINE",
"101 600 LINE"
);
},
{
closed = 1;
nodes = (
"111 660 LINE",
"462 22 LINE",
"461 0 LINE",
"401 0 LINE",
"41 649 LINE",
"41 660 LINE SMOOTH"
);
},
{
closed = 1;
nodes = (
"460 649 LINE",
"100 0 LINE",
"40 0 LINE",
"39 22 LINE",
"390 660 LINE",
"460 660 LINE SMOOTH"
);
}
);
width = 501;
}
);
unicode = 0075;
},
{
glyphname = v;
lastChange = "2020-06-06 01:00:22 +0000";
layers = (
{
layerId = "8B3E5109-5341-41E5-8963-19D9996280B2";
name = Regular;
paths = (
{
closed = 1;
nodes = (
"41 0 LINE",
"41 660 LINE",
"461 660 LINE",
"461 0 LINE"
);
},
{
closed = 1;
nodes = (
"101 60 LINE",
"401 60 LINE",
"401 600 LINE",
"101 600 LINE"
);
},
{
closed = 1;
nodes = (
"111 660 LINE",
"462 22 LINE",
"461 0 LINE",
"401 0 LINE",
"41 649 LINE",
"41 660 LINE SMOOTH"
);
},
{
closed = 1;
nodes = (
"460 649 LINE",
"100 0 LINE",
"40 0 LINE",
"39 22 LINE",
"390 660 LINE",
"460 660 LINE SMOOTH"
);
}
);
width = 501;
}
);
unicode = 0076;
},
{
glyphname = w;
lastChange = "2020-06-06 01:00:23 +0000";
layers = (
{
layerId = "8B3E5109-5341-41E5-8963-19D9996280B2";
name = Regular;
paths = (
{
closed = 1;
nodes = (
"41 0 LINE",
"41 660 LINE",
"461 660 LINE",
"461 0 LINE"
);
},
{
closed = 1;
nodes = (
"101 60 LINE",
"401 60 LINE",
"401 600 LINE",
"101 600 LINE"
);
},
{
closed = 1;
nodes = (
"111 660 LINE",
"462 22 LINE",
"461 0 LINE",
"401 0 LINE",
"41 649 LINE",
"41 660 LINE SMOOTH"
);
},
{
closed = 1;
nodes = (
"460 649 LINE",
"100 0 LINE",
"40 0 LINE",
"39 22 LINE",
"390 660 LINE",
"460 660 LINE SMOOTH"
);
}
);
width = 501;
}
);
unicode = 0077;
},
{
glyphname = x;
lastChange = "2020-06-06 01:00:25 +0000";
layers = (
{
layerId = "8B3E5109-5341-41E5-8963-19D9996280B2";
name = Regular;
paths = (
{
closed = 1;
nodes = (
"41 0 LINE",
"41 660 LINE",
"461 660 LINE",
"461 0 LINE"
);
},
{
closed = 1;
nodes = (
"101 60 LINE",
"401 60 LINE",
"401 600 LINE",
"101 600 LINE"
);
},
{
closed = 1;
nodes = (
"111 660 LINE",
"462 22 LINE",
"461 0 LINE",
"401 0 LINE",
"41 649 LINE",
"41 660 LINE SMOOTH"
);
},
{
closed = 1;
nodes = (
"460 649 LINE",
"100 0 LINE",
"40 0 LINE",
"39 22 LINE",
"390 660 LINE",
"460 660 LINE SMOOTH"
);
}
);
width = 501;
}
);
unicode = 0078;
},
{
glyphname = y;
lastChange = "2020-06-06 01:00:28 +0000";
layers = (
{
layerId = "8B3E5109-5341-41E5-8963-19D9996280B2";
name = Regular;
paths = (
{
closed = 1;
nodes = (
"41 0 LINE",
"41 660 LINE",
"461 660 LINE",
"461 0 LINE"
);
},
{
closed = 1;
nodes = (
"101 60 LINE",
"401 60 LINE",
"401 600 LINE",
"101 600 LINE"
);
},
{
closed = 1;
nodes = (
"111 660 LINE",
"462 22 LINE",
"461 0 LINE",
"401 0 LINE",
"41 649 LINE",
"41 660 LINE SMOOTH"
);
},
{
closed = 1;
nodes = (
"460 649 LINE",
"100 0 LINE",
"40 0 LINE",
"39 22 LINE",
"390 660 LINE",
"460 660 LINE SMOOTH"
);
}
);
width = 501;
}
);
unicode = 0079;
},
{
glyphname = z;
lastChange = "2020-06-06 01:00:29 +0000";
layers = (
{
layerId = "8B3E5109-5341-41E5-8963-19D9996280B2";
name = Regular;
paths = (
{
closed = 1;
nodes = (
"41 0 LINE",
"41 660 LINE",
"461 660 LINE",
"461 0 LINE"
);
},
{
closed = 1;
nodes = (
"101 60 LINE",
"401 60 LINE",
"401 600 LINE",
"101 600 LINE"
);
},
{
closed = 1;
nodes = (
"111 660 LINE",
"462 22 LINE",
"461 0 LINE",
"401 0 LINE",
"41 649 LINE",
"41 660 LINE SMOOTH"
);
},
{
closed = 1;
nodes = (
"460 649 LINE",
"100 0 LINE",
"40 0 LINE",
"39 22 LINE",
"390 660 LINE",
"460 660 LINE SMOOTH"
);
}
);
width = 501;
}
);
unicode = 007A;
},
{
glyphname = iacute_j.loclNLD;
lastChange = "2020-06-06 01:11:26 +0000";
layers = (
{
layerId = "8B3E5109-5341-41E5-8963-19D9996280B2";
name = Regular;
paths = (
{
closed = 1;
nodes = (
"41 0 LINE",
"41 660 LINE",
"461 660 LINE",
"461 0 LINE"
);
},
{
closed = 1;
nodes = (
"101 60 LINE",
"401 60 LINE",
"401 600 LINE",
"101 600 LINE"
);
},
{
closed = 1;
nodes = (
"111 660 LINE",
"462 22 LINE",
"461 0 LINE",
"401 0 LINE",
"41 649 LINE",
"41 660 LINE SMOOTH"
);
},
{
closed = 1;
nodes = (
"460 649 LINE",
"100 0 LINE",
"40 0 LINE",
"39 22 LINE",
"390 660 LINE",
"460 660 LINE SMOOTH"
);
}
);
width = 501;
}
);
},
{
glyphname = l.sc;
lastChange = "2020-06-06 01:07:43 +0000";
layers = (
{
layerId = "8B3E5109-5341-41E5-8963-19D9996280B2";
name = Regular;
paths = (
{
closed = 1;
nodes = (
"41 0 LINE",
"41 660 LINE",
"461 660 LINE",
"461 0 LINE"
);
},
{
closed = 1;
nodes = (
"101 60 LINE",
"401 60 LINE",
"401 600 LINE",
"101 600 LINE"
);
},
{
closed = 1;
nodes = (
"111 660 LINE",
"462 22 LINE",
"461 0 LINE",
"401 0 LINE",
"41 649 LINE",
"41 660 LINE SMOOTH"
);
},
{
closed = 1;
nodes = (
"460 649 LINE",
"100 0 LINE",
"40 0 LINE",
"39 22 LINE",
"390 660 LINE",
"460 660 LINE SMOOTH"
);
}
);
width = 501;
}
);
},
{
glyphname = periodcentered;
lastChange = "2020-06-06 01:05:35 +0000";
layers = (
{
layerId = "8B3E5109-5341-41E5-8963-19D9996280B2";
name = Regular;
paths = (
{
closed = 1;
nodes = (
"41 0 LINE",
"41 660 LINE",
"461 660 LINE",
"461 0 LINE"
);
},
{
closed = 1;
nodes = (
"101 60 LINE",
"401 60 LINE",
"401 600 LINE",
"101 600 LINE"
);
},
{
closed = 1;
nodes = (
"111 660 LINE",
"462 22 LINE",
"461 0 LINE",
"401 0 LINE",
"41 649 LINE",
"41 660 LINE SMOOTH"
);
},
{
closed = 1;
nodes = (
"460 649 LINE",
"100 0 LINE",
"40 0 LINE",
"39 22 LINE",
"390 660 LINE",
"460 660 LINE SMOOTH"
);
}
);
width = 501;
}
);
unicode = 00B7;
},
{
glyphname = periodcentered.loclCAT.case;
lastChange = "2020-06-06 01:06:17 +0000";
layers = (
{
layerId = "8B3E5109-5341-41E5-8963-19D9996280B2";
name = Regular;
paths = (
{
closed = 1;
nodes = (
"41 0 LINE",
"41 660 LINE",
"461 660 LINE",
"461 0 LINE"
);
},
{
closed = 1;
nodes = (
"101 60 LINE",
"401 60 LINE",
"401 600 LINE",
"101 600 LINE"
);
},
{
closed = 1;
nodes = (
"111 660 LINE",
"462 22 LINE",
"461 0 LINE",
"401 0 LINE",
"41 649 LINE",
"41 660 LINE SMOOTH"
);
},
{
closed = 1;
nodes = (
"460 649 LINE",
"100 0 LINE",
"40 0 LINE",
"39 22 LINE",
"390 660 LINE",
"460 660 LINE SMOOTH"
);
}
);
width = 501;
}
);
},
{
glyphname = periodcentered.loclCAT;
lastChange = "2020-06-06 01:05:54 +0000";
layers = (
{
layerId = "8B3E5109-5341-41E5-8963-19D9996280B2";
name = Regular;
paths = (
{
closed = 1;
nodes = (
"41 0 LINE",
"41 660 LINE",
"461 660 LINE",
"461 0 LINE"
);
},
{
closed = 1;
nodes = (
"101 60 LINE",
"401 60 LINE",
"401 600 LINE",
"101 600 LINE"
);
},
{
closed = 1;
nodes = (
"111 660 LINE",
"462 22 LINE",
"461 0 LINE",
"401 0 LINE",
"41 649 LINE",
"41 660 LINE SMOOTH"
);
},
{
closed = 1;
nodes = (
"460 649 LINE",
"100 0 LINE",
"40 0 LINE",
"39 22 LINE",
"390 660 LINE",
"460 660 LINE SMOOTH"
);
}
);
width = 501;
}
);
},
{
glyphname = periodcentered.loclCAT.sc;
lastChange = "2020-06-06 01:08:33 +0000";
layers = (
{
layerId = "8B3E5109-5341-41E5-8963-19D9996280B2";
name = Regular;
paths = (
{
closed = 1;
nodes = (
"41 0 LINE",
"41 660 LINE",
"461 660 LINE",
"461 0 LINE"
);
},
{
closed = 1;
nodes = (
"101 60 LINE",
"401 60 LINE",
"401 600 LINE",
"101 600 LINE"
);
},
{
closed = 1;
nodes = (
"111 660 LINE",
"462 22 LINE",
"461 0 LINE",
"401 0 LINE",
"41 649 LINE",
"41 660 LINE SMOOTH"
);
},
{
closed = 1;
nodes = (
"460 649 LINE",
"100 0 LINE",
"40 0 LINE",
"39 22 LINE",
"390 660 LINE",
"460 660 LINE SMOOTH"
);
}
);
width = 501;
}
);
},
{
glyphname = S.008;
layers = (
{
annotations = (
{
position = "{42.022, 647.686}";
type = Minus;
}
);
layerId = "8B3E5109-5341-41E5-8963-19D9996280B2";
name = Regular;
paths = (
{
closed = 1;
nodes = (
"51 0 LINE",
"51 660 LINE",
"471 660 LINE",
"471 0 LINE"
);
},
{
closed = 1;
nodes = (
"88 36 LINE",
"434 36 LINE",
"434 624 LINE",
"88 624 LINE"
);
},
{
closed = 1;
nodes = (
"102 660 LINE",
"458 22 LINE",
"471 0 LINE",
"425 0 LINE",
"60 649 LINE",
"51 660 LINE SMOOTH"
);
},
{
closed = 1;
nodes = (
"458 649 LINE",
"98 0 LINE",
"50 0 LINE",
"61 22 LINE",
"412 660 LINE",
"470 660 LINE SMOOTH"
);
}
);
width = 521;
}
);
note = .notdef;
},
{
glyphname = S.009;
layers = (
{
annotations = (
{
position = "{42.022, 647.686}";
type = Minus;
}
);
layerId = "8B3E5109-5341-41E5-8963-19D9996280B2";
name = Regular;
paths = (
{
closed = 1;
nodes = (
"51 0 LINE",
"51 660 LINE",
"471 660 LINE",
"471 0 LINE"
);
},
{
closed = 1;
nodes = (
"88 36 LINE",
"434 36 LINE",
"434 624 LINE",
"88 624 LINE"
);
},
{
closed = 1;
nodes = (
"102 660 LINE",
"458 22 LINE",
"471 0 LINE",
"425 0 LINE",
"60 649 LINE",
"51 660 LINE SMOOTH"
);
},
{
closed = 1;
nodes = (
"458 649 LINE",
"98 0 LINE",
"50 0 LINE",
"61 22 LINE",
"412 660 LINE",
"470 660 LINE SMOOTH"
);
}
);
width = 521;
}
);
note = .notdef;
},
{
glyphname = S.010;
layers = (
{
annotations = (
{
position = "{42.022, 647.686}";
type = Minus;
}
);
layerId = "8B3E5109-5341-41E5-8963-19D9996280B2";
name = Regular;
paths = (
{
closed = 1;
nodes = (
"51 0 LINE",
"51 660 LINE",
"471 660 LINE",
"471 0 LINE"
);
},
{
closed = 1;
nodes = (
"88 36 LINE",
"434 36 LINE",
"434 624 LINE",
"88 624 LINE"
);
},
{
closed = 1;
nodes = (
"102 660 LINE",
"458 22 LINE",
"471 0 LINE",
"425 0 LINE",
"60 649 LINE",
"51 660 LINE SMOOTH"
);
},
{
closed = 1;
nodes = (
"458 649 LINE",
"98 0 LINE",
"50 0 LINE",
"61 22 LINE",
"412 660 LINE",
"470 660 LINE SMOOTH"
);
}
);
width = 521;
}
);
note = .notdef;
},
{
glyphname = S.011;
layers = (
{
annotations = (
{
position = "{42.022, 647.686}";
type = Minus;
}
);
layerId = "8B3E5109-5341-41E5-8963-19D9996280B2";
name = Regular;
paths = (
{
closed = 1;
nodes = (
"51 0 LINE",
"51 660 LINE",
"471 660 LINE",
"471 0 LINE"
);
},
{
closed = 1;
nodes = (
"88 36 LINE",
"434 36 LINE",
"434 624 LINE",
"88 624 LINE"
);
},
{
closed = 1;
nodes = (
"102 660 LINE",
"458 22 LINE",
"471 0 LINE",
"425 0 LINE",
"60 649 LINE",
"51 660 LINE SMOOTH"
);
},
{
closed = 1;
nodes = (
"458 649 LINE",
"98 0 LINE",
"50 0 LINE",
"61 22 LINE",
"412 660 LINE",
"470 660 LINE SMOOTH"
);
}
);
width = 521;
}
);
note = .notdef;
},
{
glyphname = S.012;
layers = (
{
annotations = (
{
position = "{42.022, 647.686}";
type = Minus;
}
);
layerId = "8B3E5109-5341-41E5-8963-19D9996280B2";
name = Regular;
paths = (
{
closed = 1;
nodes = (
"51 0 LINE",
"51 660 LINE",
"471 660 LINE",
"471 0 LINE"
);
},
{
closed = 1;
nodes = (
"88 36 LINE",
"434 36 LINE",
"434 624 LINE",
"88 624 LINE"
);
},
{
closed = 1;
nodes = (
"102 660 LINE",
"458 22 LINE",
"471 0 LINE",
"425 0 LINE",
"60 649 LINE",
"51 660 LINE SMOOTH"
);
},
{
closed = 1;
nodes = (
"458 649 LINE",
"98 0 LINE",
"50 0 LINE",
"61 22 LINE",
"412 660 LINE",
"470 660 LINE SMOOTH"
);
}
);
width = 521;
}
);
note = .notdef;
},
